<?xml version="1.0" standalone="no"?>
<!DOCTYPE svg PUBLIC "-//W3C//DTD SVG 20010904//EN"
 "http://www.w3.org/TR/2001/REC-SVG-20010904/DTD/svg10.dtd">
<svg version="1.0" xmlns="http://www.w3.org/2000/svg"
 width="302.000000pt" height="302.000000pt" viewBox="0 0 302.000000 302.000000"
 preserveAspectRatio="xMidYMid meet">
<metadata>
Created by potrace 1.11, written by Peter Selinger 2001-2013
</metadata>
<g transform="translate(0.000000,302.000000) scale(0.100000,-0.100000)"
fill="#000000" stroke="none">
<path d="M895 2965 c-28 -27 -27 -19 -30 -180 -1 -66 -3 -124 -4 -130 -1 -6
-80 -10 -214 -11 -195 0 -215 -2 -252 -21 -51 -26 -88 -64 -111 -111 -15 -29
-19 -67 -22 -183 l-4 -146 1270 0 1269 0 1 121 c1 152 -10 203 -55 255 -67 79
-88 84 -333 86 l-215 1 -2 95 c-1 52 -2 118 -2 147 -1 42 -6 58 -26 77 -32 33
-83 33 -119 0 -28 -26 -28 -23 -28 -205 l0 -115 -486 0 -487 0 -3 146 c-2 139
-4 148 -27 173 -32 35 -86 36 -120 1z m213 -484 c50 -113 -29 -234 -153 -235
-147 0 -225 170 -129 283 32 37 39 25 40 -64 0 -75 3 -88 24 -110 32 -34 91
-35 125 0 23 22 25 32 25 115 l0 91 25 -18 c13 -10 33 -38 43 -62z m910 -6
c-1 -117 26 -153 107 -143 48 5 67 44 67 137 0 94 10 102 52 42 78 -113 -4
-268 -141 -265 -128 3 -206 132 -148 244 12 24 52 70 61 70 1 0 2 -38 2 -85z"/>
<path d="M262 1173 l3 -898 22 -41 c12 -23 36 -53 54 -68 70 -59 6 -56 1184
-56 782 0 1091 3 1116 11 52 18 96 55 126 107 l28 47 1 898 2 897 -1269 0
-1270 0 3 -897z m623 718 c6 -1 10 -82 9 -223 -1 -123 -2 -225 -3 -228 0 -3
-102 -5 -226 -5 l-225 0 -1 30 c-1 35 -1 405 0 420 1 8 386 13 446 6z m580
-226 l0 -230 -225 0 -225 0 -2 220 c-1 121 0 225 1 230 2 6 87 10 227 10 l224
0 0 -230z m580 0 l0 -230 -227 0 -228 0 0 230 0 230 228 0 227 -1 0 -229z
m576 208 c1 -30 1 -375 0 -411 l-1 -27 -222 1 c-123 1 -225 2 -228 3 -8 2 -7
445 1 451 4 3 107 5 228 5 l221 0 1 -22z m-1729 -567 c2 -6 4 -108 4 -226 l-1
-215 -230 -3 -230 -2 2 202 c1 112 2 215 2 229 l1 26 224 0 c159 0 226 -3 228
-11z m578 -218 l0 -228 -227 2 -228 3 -2 220 c0 121 0 223 3 226 2 3 105 6
229 6 l225 0 0 -229z m577 0 l0 -228 -228 0 -229 0 0 30 c-1 17 -1 113 -1 215
0 102 0 191 1 199 0 11 41 13 228 13 l229 0 0 -229z m574 213 c1 -20 1 -423 0
-434 -1 -4 -103 -6 -228 -5 l-228 3 -1 220 c0 121 1 223 2 226 2 3 104 6 228
6 203 1 226 -1 227 -16z m-1732 -569 c5 -8 7 -397 2 -437 -1 -14 -451 -14
-452 0 -6 77 1 439 9 444 18 11 434 4 441 -7z m564 9 c16 -1 17 -17 15 -228
l-3 -228 -225 0 -225 0 -2 227 -1 227 31 3 c26 2 343 1 410 -1z m578 0 c15 -1
17 -24 16 -226 0 -124 -3 -225 -6 -226 -33 -6 -444 -3 -447 3 -6 9 -5 438 0
447 3 5 343 6 437 2z m586 -5 c5 -5 7 -286 4 -431 -1 -19 -8 -20 -226 -20
-124 0 -226 2 -226 5 -5 23 -3 446 2 450 11 7 439 4 446 -4z"/>
</g>
</svg>
